<svg fill="none" height="48" viewBox="0 0 80 48" width="80" xmlns="http://www.w3.org/2000/svg" xmlns:xlink="http://www.w3.org/1999/xlink"><clipPath id="a"><path d="m5 12h70v24.4444h-70z"/></clipPath><path d="m74 0h-68c-3.31371 0-6 2.68629-6 6v36c0 3.3137 2.68629 6 6 6h68c3.3137 0 6-2.6863 6-6v-36c0-3.31371-2.6863-6-6-6z" fill="#f6f8fa"/><g clip-path="url(#a)"><path d="m11 18.0556h2.4444l-1.2222-3.1112z" fill="#2fabf7"/><path d="m41.3333 15.3889c-.2222-.1111-.5555-.1111-.8889-.1111h-2.2222v1.7778h2.2222c.3334 0 .6667 0 .8889-.1112.2222-.1111.3334-.4444.3334-.7777.1111-.4445-.1112-.6667-.3334-.7778z" fill="#228fe0"/><path d="m65.1111 12.0556v1.3333l-.6667-1.3333h-5.2222v1.3333l-.6666-1.3333h-7.1112c-1.2222 0-2.2222.2222-3.1111.6666v-.6666h-5v.6666c-.5555-.4444-1.2222-.6666-2.1111-.6666h-17.8889l-1.2222 2.7777-1.2222-2.7777h-5.6667v1.3333l-.6666-1.3333h-4.77782l-2.22222 5.2222-2.55556 5.7778h2.55556 3.11114l.6666-1.7778h1.5556l.6667 1.7778h6.4444v-1.3334l.5556 1.3334h3.2222l.5555-1.3334v1.3334h15.4445v-2.8889h.2222c.2222 0 .2222 0 .2222.3333v2.4444h8v-.6666c.6667.3333 1.6667.6666 3 .6666h3.3334l.6666-1.7777h1.5556l.6666 1.7777h6.4445v-1.6666l1 1.6666h5.2222v-10.8888zm-37.5555 9.3333h-1.8889v-6.1111l-2.6667 6.1111h-1.6667l-2.6666-6.1111v6.1111h-3.7778l-.7778-1.6667h-3.7778l-.66663 1.7778h-2.11111l3.33334-7.8889h2.7778l3.1111 7.4445v-7.4445h3l2.4444 5.3333 2.2222-5.3333h3.1112zm7.5555-6.1111h-4.3333v1.4444h4.2222v1.5556h-4.2222v1.5555h4.3333v1.6667h-6.2222v-7.8889h6.2222zm8.3333 3.2222c.2223.4444.3334.7778.3334 1.4444v1.5556h-1.8889v-1c0-.4444 0-1.1111-.3333-1.5556-.3334-.3333-.6667-.3333-1.3334-.3333h-2v2.8889h-1.8889v-7.8889h4.2223c1 0 1.6666 0 2.2222.3333.5555.3334.8889.8889.8889 1.7778 0 1.2222-.7778 1.8889-1.3334 2.1111.5556.1111.8889.4445 1.1111.6667zm3.3334 2.8889h-1.8889v-7.8889h1.8889zm21.8889 0h-2.6667l-3.5556-5.8889v5.8889h-3.7777l-.6667-1.6667h-3.8889l-.6667 1.7778h-2.1111c-.8889 0-2-.2222-2.6666-.8889-.6667-.6667-1-1.5555-1-3 0-1.1111.2222-2.2222 1-3.1111.5555-.6667 1.5555-.8889 2.7777-.8889h1.7778v1.6667h-1.7778c-.6666 0-1 .1111-1.4444.4444-.3333.3334-.5556 1-.5556 1.7778 0 .8889.1112 1.4444.5556 1.8889.3333.3333.7778.4444 1.3333.4444h.7778l2.5556-6.1111h2.7777l3.1112 7.4445v-7.4445h2.7777l3.2223 5.4445v-5.4445h1.8888v7.6667z" fill="#0571c1"/><path d="m54.7778 18.0556h2.5556l-1.2223-3.1112z" fill="#228fe0"/><path d="m35.8889 34.0556v-6.3334l-2.8889 3.1111z" fill="#228fe0"/><path d="m24 28.5v1.4444h4.1111v1.5556h-4.1111v1.6667h4.5556l2.1111-2.3334-2-2.3333z" fill="#2fabf7"/><path d="m40.1111 28.5h-2.3333v2h2.4444c.6667 0 1.1111-.3333 1.1111-1-.1111-.6667-.5555-1-1.2222-1z" fill="#228fe0"/><path d="m74.4444 30.3889v-5h-1.3333-3.3334c-1 0-1.7777.2222-2.3333.6667v-.6667h-5.1111c-.7778 0-1.7778.2222-2.2222.6667v-.6667h-9v.6667c-.6667-.5556-1.8889-.6667-2.4445-.6667h-6v.6667c-.5555-.5556-1.8889-.6667-2.5555-.6667h-6.6667l-1.5556 1.6667-1.4444-1.6667h-10v10.8889h9.7778l1.5555-1.6667 1.4445 1.6667h6v-2.5556h.7778c.7777 0 1.7777 0 2.5555-.3333v3h5v-2.8889h.2222c.3334 0 .3334 0 .3334.3333v2.5556h15.1111c1 0 2-.2222 2.5555-.6667v.6667h4.7778c1 0 2-.1111 2.6667-.5556 1.1111-.6666 1.7777-1.8889 1.7777-3.3333 0-.7778-.2222-1.5556-.5555-2.1111zm-34.4444 1.7778h-2.2223v2.6666h-3.5555l-2.2222-2.5555-2.3334 2.5555h-7.3333v-7.8889h7.4444l2.2223 2.5556 2.3333-2.5556h5.8889c1.4444 0 3.1111.4445 3.1111 2.5556-.1111 2.2222-1.6667 2.6667-3.3333 2.6667zm11.1111-.4445c.2222.3334.3333.7778.3333 1.4445v1.5555h-1.8889v-1c0-.4444 0-1.2222-.3333-1.5555-.2222-.3334-.6667-.3334-1.3334-.3334h-2v2.8889h-1.8889v-7.8889h4.2223c.8889 0 1.6666 0 2.2222.3334.5556.3333 1 .8889 1 1.7777 0 1.2223-.7778 1.8889-1.3333 2.1112.5555.2222.8889.4444 1 .6666zm7.6666-3.2222h-4.3333v1.4444h4.2222v1.5556h-4.2222v1.5556h4.3333v1.6666h-6.2222v-7.8889h6.2222zm4.6667 6.2222h-3.5556v-1.6666h3.5556c.3333 0 .5556 0 .7778-.2223.1111-.1111.2222-.3333.2222-.5555s-.1111-.4445-.2222-.5556-.3334-.2222-.6667-.2222c-1.7778-.1111-3.8889 0-3.8889-2.4444 0-1.1112.6667-2.3334 2.6667-2.3334h3.6666v1.8889h-3.4444c-.3333 0-.5556 0-.7778.1111s-.2222.3334-.2222.5556c0 .3333.2222.4444.4445.5555.2222.1111.4444.1111.6666.1111h1c1 0 1.6667.2223 2.1111.6667.3334.3333.5556.8889.5556 1.6667 0 1.6666-1 2.4444-2.8889 2.4444zm9.5556-.7778c-.4445.4445-1.2223.7778-2.3334.7778h-3.5555v-1.6666h3.5555c.3333 0 .5556 0 .7778-.2223.1111-.1111.2222-.3333.2222-.5555s-.1111-.4445-.2222-.5556-.3333-.2222-.6667-.2222c-1.7777-.1111-3.8889 0-3.8889-2.4444 0-1.1112.6667-2.3334 2.6667-2.3334h3.6667v1.8889h-3.3334c-.3333 0-.5555 0-.7777.1111-.2223.1111-.2223.3334-.2223.5556 0 .3333.1111.4444.4445.5555.2222.1111.4444.1111.6666.1111h1c1 0 1.6667.2223 2.1112.6667.1111 0 .1111.1111.1111.1111.3333.4445.4444 1 .4444 1.5556 0 .6666-.2222 1.2222-.6666 1.6666z" fill="#0571c1"/><g fill="#228fe0"><path d="m49.1111 28.7222c-.2222-.1111-.5556-.1111-.8889-.1111h-2.2222v1.7778h2.2222c.3333 0 .6667 0 .8889-.1111s.3333-.4445.3333-.7778c.1111-.4444-.1111-.6667-.3333-.7778z"/><path d="m41.3333 15.3889c-.2222-.1111-.5555-.1111-.8889-.1111h-2.2222v1.7778h2.2222c.3334 0 .6667 0 .8889-.1112.2222-.1111.3334-.4444.3334-.7777.1111-.4445-.1112-.6667-.3334-.7778z"/><path d="m54.7778 18.0556h2.5556l-1.2223-3.1112z"/><path d="m35.8889 34.0556v-6.3334l-2.8889 3.1111z"/><path d="m40.1111 28.5h-2.3333v2h2.4444c.6667 0 1.1111-.3333 1.1111-1-.1111-.6667-.5555-1-1.2222-1z"/><path d="m49.1111 28.7222c-.2222-.1111-.5556-.1111-.8889-.1111h-2.2222v1.7778h2.2222c.3333 0 .6667 0 .8889-.1111s.3333-.4445.3333-.7778c.1111-.4444-.1111-.6667-.3333-.7778z"/></g><path d="m39.3333 34.5-1.5556-1.6667v1.8889h-3.6666l-2.2223-2.5555-2.4444 2.5555h-7.3333v-7.7777h7.4444l2.3333 2.5555 1.1112-1.3333-2.7778-2.7778h-9.7778v10.8889h9.7778l1.6666-1.6667 1.4445 1.6667h6z" fill="#2fabf7"/><path d="m27.7778 22.9444-1.4445-1.5555h-.6666v-.6667l-1.6667-1.6666-1.1111 2.3333h-1.5556l-2.6666-6.1111v6.1111h-3.7778l-.7778-1.6667h-3.7778l-.77774 1.6667h-2l3.33334-7.7778h2.7778l3.1111 7.4445v-7.4445h1.6666l-1.5555-1.5555h-1.6667v1.3333l-.5555-1.3333h-4.88892l-2.22222 5.2222-2.55556 5.6666h2.55556 3.22224l.6666-1.6666h1.5556l.7778 1.6666h6.2222v-1.3333l.5556 1.3333h3.2222l.5555-1.3333v1.3333z" fill="#2fabf7"/><path d="m22.6667 17.8333-1.7778-1.7777 1.3334 2.8888z" fill="#2fabf7"/><path d="m73.2222 35.7222c1-.6666 1.6667-1.7778 1.7778-3l-1.5556-1.5555c.1111.3333.2222.6666.2222 1.1111 0 .6666-.2222 1.2222-.6666 1.6666-.4445.4445-1.2223.7778-2.3334.7778h-3.5555v-1.6666h3.5555c.3334 0 .5556 0 .7778-.2223.1111-.1111.2222-.3333.2222-.5555s-.1111-.4445-.2222-.5556-.3333-.2222-.6667-.2222c-1.7777-.1111-3.8888 0-3.8888-2.4445 0-1.1111.6666-2.1111 2.3333-2.3333l-1.2222-1.2222c-.2223.1111-.3334.2222-.4445.2222v-.6667h-5.1111c-.7778 0-1.7778.2223-2.2222.6667v-.6667h-9.1111v.6667c-.6667-.5555-1.8889-.6667-2.4445-.6667h-6v.6667c-.5555-.5555-1.8889-.6667-2.5555-.6667h-6.6667l-1.5556 1.6667-1.4444-1.6667h-1.2222l3.3333 3.3334 1.6667-1.7778h5.8889c1.4444 0 3.1111.4444 3.1111 2.5556 0 2.2222-1.5556 2.6666-3.2222 2.6666h-2.2223v1.6667l1.6667 1.6667v-1.6667h.5556c.7777 0 1.7777 0 2.5555-.3333v3h5v-2.8889h.2222c.3334 0 .3334 0 .3334.3333v2.5556h15.1111c1 0 2-.2223 2.5555-.6667v.6667h4.7778c.8889.1111 1.8889 0 2.6667-.4445zm-22.1111-4c.2222.3334.3333.7778.3333 1.4445v1.5555h-1.8889v-1c0-.4444 0-1.2222-.3333-1.5555-.2222-.3334-.6667-.3334-1.3334-.3334h-2v2.8889h-1.8888v-7.8889h4.2222c.8889 0 1.6666 0 2.2222.3334.5556.3333 1 .8888 1 1.7777 0 1.2223-.7778 1.8889-1.3333 2.1112.5555.2222.8889.4444 1 .6666zm7.6666-3.2222h-4.3333v1.4444h4.2222v1.5556h-4.2222v1.5556h4.3333v1.6666h-6.2222v-7.8889h6.2222zm4.6667 6.2222h-3.5555v-1.6666h3.5555c.3333 0 .5556 0 .7778-.2223.1111-.1111.2222-.3333.2222-.5555s-.1111-.4445-.2222-.5556-.3333-.2222-.6667-.2222c-1.7778-.1111-3.8889 0-3.8889-2.4445 0-1.1111.6667-2.3333 2.6667-2.3333h3.6667v1.8889h-3.4445c-.3333 0-.5555 0-.7778.1111-.2222.1111-.2222.3333-.2222.5556 0 .3333.2222.4444.4445.5555.2222.1111.4444.1111.6666.1111h1c1 0 1.6667.2223 2.1111.6667.3334.3333.5556.8889.5556 1.6667 0 1.6666-1 2.4444-2.8889 2.4444z" fill="#228fe0"/><path d="m68.7777 29.2778c0 .3333.1111.4444.4445.5555.2222.1111.4444.1111.6666.1111h1c.6667 0 1.1112.1112 1.5556.3334l-1.6667-1.6667h-1c-.3333 0-.5555 0-.7777.1111-.1112.1111-.2223.3334-.2223.5556z" fill="#228fe0"/><path d="m64.8889 22.6111.2222.3333h.1111z" fill="#228fe0"/><path d="m58.7777 16.5 1.8889 4.5555v-2.6666z" fill="#228fe0"/><path d="m39.7777 20.1667h.2223c.2222 0 .2222 0 .2222.3333v2.4444h8v-.6666c.6667.3333 1.6666.6666 3 .6666h3.3333l.6667-1.7777h1.5555l.6667 1.7777h6.4444v-1.1111l-1.5555-1.5555v1.2222h-3.7778l-.5555-1.7778h-3.8889l-.6667 1.7778h-2.1111c-.8889 0-2-.2222-2.6667-.8889-.6666-.6667-1-1.5555-1-3 0-1.1111.2222-2.2222 1-3.1111.5556-.6667 1.5556-.8889 2.7778-.8889h1.7778v1.6667h-1.7778c-.6667 0-1 .1111-1.4444.4444-.3334.3334-.5556 1-.5556 1.7778 0 .8889.1111 1.4444.5556 1.8889.3333.3333.7777.4444 1.3333.4444h.7778l2.5555-6.1111h1.1111l-1.5555-1.5555h-2.8889c-1.2222 0-2.2222.2222-3.1111.6666v-.6666h-4.8889v.6666c-.5556-.4444-1.2222-.6666-2.1111-.6666h-17.8889l-1.2222 2.7777-1.2223-2.7777h-4.8888l1.5555 1.5555h2.2222l1.8889 4.1111.6667.6667 2-4.8889h3.1111v7.8889h-1.8889v-6.1111l-1.8889 4.4444 3.2222 3.2223h12.7778zm5.1111-6.5556h1.8889v7.8889h-1.8889zm-9.7777 1.6667h-4.3334v1.4444h4.2223v1.5556h-4.2223v1.5555h4.3334v1.6667h-6.2223v-7.8889h6.2223zm3.1111 6.1111h-1.8889v-7.8889h4.2222c1 0 1.6667 0 2.2222.3333.5556.3334.8889.8889.8889 1.7778 0 1.2222-.7778 1.8889-1.3333 2.1111.4444.1111.7778.4445.8889.6667.2222.4444.3333.7778.3333 1.4444v1.5556h-1.8889v-1c0-.4445 0-1.1111-.3333-1.5556-.1111-.2222-.4445-.2222-1.1111-.2222h-2z" fill="#228fe0"/></g></svg>