<svg fill="none" height="23" viewBox="0 0 23 23" width="23" xmlns="http://www.w3.org/2000/svg"><path d="m11.5 23c6.3513 0 11.5-5.1487 11.5-11.5 0-6.35127-5.1487-11.5-11.5-11.5-6.35127 0-11.5 5.14873-11.5 11.5 0 6.3513 5.14873 11.5 11.5 11.5z" fill="#039be5"/><path d="m5.26234 11.2509 11.08796-4.27512c.5146-.18591.964.12555.7973.90371l.001-.00095-1.888 8.89426c-.1399.6306-.5146.7839-1.0388.4869l-2.875-2.1189-1.38671 1.3359c-.15333.1533-.28271.2827-.57979.2827l.20412-2.9258 5.32838-4.81369c.2319-.20412-.0518-.31912-.3575-.11596l-6.58471 4.14575-2.83859-.8855c-.6162-.1955-.62962-.6162.13034-.9133z" fill="#fff"/></svg>