<svg fill="none" height="258" viewBox="0 0 1128 258" width="1128" xmlns="http://www.w3.org/2000/svg"><path d="m75.4712 196.827c-10.752 0-20.4013-2.481-28.9478-7.444-8.5466-5.1-15.3011-11.992-20.2636-20.677-4.9624-8.684-7.5126-18.471-7.6505-29.361v-94.2874c0-3.1705.965-5.7207 2.8948-7.6505 2.0677-1.9299 4.6179-2.8948 7.6505-2.8948 3.1705 0 5.7207.9649 7.6505 2.8948 1.9299 1.9298 2.8948 4.48 2.8948 7.6505v55.8284c4.8247-5.79 10.6142-10.3389 17.3687-13.6473 6.8924-3.4461 14.4051-5.1692 22.538-5.1692 10.0629 0 19.0918 2.5502 27.0874 7.6505 7.995 4.9625 14.267 11.786 18.816 20.47 4.686 8.547 7.03 18.265 7.03 29.155s-2.55 20.677-7.651 29.361c-4.962 8.685-11.717 15.577-20.263 20.677-8.5467 4.963-18.2649 7.444-29.1548 7.444zm0-18.609c7.0302 0 13.3022-1.654 18.8161-4.963 5.5139-3.446 9.8557-8.133 13.0267-14.06 3.308-5.928 4.962-12.544 4.962-19.85 0-7.444-1.654-14.06-4.962-19.85-3.171-5.79-7.5128-10.339-13.0267-13.647-5.5139-3.446-11.7859-5.169-18.8161-5.169-6.8923 0-13.1644 1.723-18.8161 5.169-5.5139 3.308-9.8561 7.857-13.0265 13.647-3.1705 5.79-4.7558 12.406-4.7558 19.85 0 7.306 1.5853 13.922 4.7558 19.85 3.1704 5.927 7.5126 10.614 13.0265 14.06 5.6517 3.309 11.9238 4.963 18.8161 4.963zm123.2608 18.609c-11.165 0-21.021-2.412-29.568-7.237-8.546-4.962-15.301-11.717-20.263-20.263-4.825-8.685-7.237-18.61-7.237-29.775 0-11.304 2.412-21.229 7.237-29.775 4.962-8.685 11.717-15.4391 20.263-20.2638 8.547-4.9625 18.403-7.4437 29.568-7.4437 11.028 0 20.815 2.4812 29.362 7.4437 8.546 4.8247 15.232 11.5788 20.056 20.2638 4.963 8.546 7.444 18.471 7.444 29.775 0 11.165-2.412 21.09-7.237 29.775-4.824 8.546-11.51 15.301-20.057 20.263-8.546 4.825-18.402 7.237-29.568 7.237zm0-18.609c7.168 0 13.509-1.654 19.023-4.963 5.514-3.308 9.787-7.857 12.82-13.647 3.17-5.789 4.756-12.475 4.756-20.056 0-7.582-1.586-14.267-4.756-20.057-3.033-5.927-7.306-10.545-12.82-13.854-5.514-3.308-11.855-4.962-19.023-4.962s-13.509 1.654-19.023 4.962c-5.514 3.309-9.856 7.927-13.026 13.854-3.171 5.79-4.756 12.475-4.756 20.057 0 7.581 1.585 14.267 4.756 20.056 3.17 5.79 7.512 10.339 13.026 13.647 5.514 3.309 11.855 4.963 19.023 4.963zm112.857 17.782c-6.893 0-13.096-1.723-18.61-5.169-5.514-3.584-9.856-8.409-13.026-14.474-3.171-6.065-4.756-12.889-4.756-20.47v-51.073h-9.512c-2.894 0-5.238-.827-7.03-2.481s-2.688-3.7219-2.688-6.2031c0-2.757.896-4.9625 2.688-6.6167 1.792-1.6541 4.136-2.4812 7.03-2.4812h9.512v-29.775c0-3.0326.965-5.5139 2.895-7.4437 1.93-1.9299 4.411-2.8948 7.443-2.8948 3.033 0 5.514.9649 7.444 2.8948 1.93 1.9298 2.895 4.4111 2.895 7.4437v29.775h17.575c2.895 0 5.239.8271 7.031 2.4812 1.792 1.6542 2.688 3.8597 2.688 6.6167 0 2.4812-.896 4.5491-2.688 6.2031s-4.136 2.481-7.031 2.481h-17.575v51.073c0 5.513 1.516 10.131 4.549 13.853s6.754 5.583 11.166 5.583h7.03c2.481 0 4.549.965 6.203 2.895 1.792 1.93 2.688 4.411 2.688 7.443 0 3.033-1.172 5.514-3.515 7.444-2.206 1.93-5.101 2.895-8.685 2.895zm72.445.827c-10.063 0-19.092-2.481-27.087-7.444-7.995-5.1-14.336-11.923-19.023-20.47-4.549-8.684-6.823-18.471-6.823-29.361s2.481-20.677 7.444-29.362c5.1-8.684 11.923-15.5075 20.47-20.47 8.684-5.1003 18.402-7.6505 29.155-7.6505 10.752 0 20.401 2.5502 28.947 7.6505 8.547 4.9625 15.301 11.786 20.264 20.47 5.1 8.685 7.65 18.472 7.65 29.362v46.109c0 3.033-1.033 5.583-3.101 7.651-1.93 1.93-4.411 2.895-7.444 2.895s-5.583-.965-7.65-2.895c-1.93-2.068-2.895-4.618-2.895-7.651v-7.65c-4.825 5.79-10.683 10.407-17.576 13.854-6.754 3.308-14.198 4.962-22.331 4.962zm4.136-18.609c7.03 0 13.302-1.654 18.816-4.963 5.514-3.446 9.856-8.064 13.026-13.853 3.171-5.928 4.756-12.544 4.756-19.85 0-7.444-1.585-14.061-4.756-19.85-3.17-5.928-7.512-10.546-13.026-13.854-5.514-3.446-11.786-5.169-18.816-5.169-6.893 0-13.165 1.723-18.817 5.169-5.513 3.308-9.925 7.926-13.233 13.854-3.17 5.789-4.756 12.406-4.756 19.85 0 7.306 1.586 13.922 4.756 19.85 3.308 5.789 7.72 10.407 13.233 13.853 5.652 3.309 11.924 4.963 18.817 4.963zm67.141 19.67c-2.203 0-4.13-.787-5.782-2.36-1.573-1.652-2.36-3.579-2.36-5.782 0-2.281.787-4.209 2.36-5.782 1.652-1.652 3.579-2.478 5.782-2.478 2.281 0 4.209.826 5.782 2.478 1.573 1.573 2.36 3.501 2.36 5.782 0 2.203-.787 4.13-2.36 5.782-1.573 1.573-3.501 2.36-5.782 2.36z" fill="#fff"/><path d="m536.177 196.56c-7.28 0-13.814-1.68-19.6-5.04-5.787-3.453-10.36-8.12-13.72-14s-5.087-12.507-5.18-19.88v-63.84c0-2.1467.653-3.8733 1.96-5.18 1.4-1.3067 3.126-1.96 5.18-1.96 2.146 0 3.873.6533 5.18 1.96 1.306 1.3067 1.96 3.0333 1.96 5.18v37.8c3.266-3.92 7.186-7 11.76-9.24 4.666-2.333 9.753-3.5 15.26-3.5 6.813 0 12.926 1.727 18.34 5.18 5.413 3.36 9.66 7.98 12.74 13.86 3.173 5.787 4.76 12.367 4.76 19.74s-1.727 14-5.18 19.88c-3.36 5.88-7.934 10.547-13.72 14-5.787 3.36-12.367 5.04-19.74 5.04zm0-12.6c4.76 0 9.006-1.12 12.74-3.36 3.733-2.333 6.673-5.507 8.82-9.52 2.24-4.013 3.36-8.493 3.36-13.44 0-5.04-1.12-9.52-3.36-13.44-2.147-3.92-5.087-7-8.82-9.24-3.734-2.333-7.98-3.5-12.74-3.5-4.667 0-8.914 1.167-12.74 3.5-3.734 2.24-6.674 5.32-8.82 9.24-2.147 3.92-3.22 8.4-3.22 13.44 0 4.947 1.073 9.427 3.22 13.44 2.146 4.013 5.086 7.187 8.82 9.52 3.826 2.24 8.073 3.36 12.74 3.36zm83.457 12.6c-7.56 0-14.233-1.633-20.02-4.9-5.787-3.36-10.36-7.933-13.72-13.72-3.267-5.88-4.9-12.6-4.9-20.16 0-7.653 1.633-14.373 4.9-20.16 3.36-5.88 7.933-10.453 13.72-13.72 5.787-3.36 12.46-5.04 20.02-5.04 7.467 0 14.093 1.68 19.88 5.04 5.787 3.267 10.313 7.84 13.58 13.72 3.36 5.787 5.04 12.507 5.04 20.16 0 7.56-1.633 14.28-4.9 20.16-3.267 5.787-7.793 10.36-13.58 13.72-5.787 3.267-12.46 4.9-20.02 4.9zm0-12.6c4.853 0 9.147-1.12 12.88-3.36s6.627-5.32 8.68-9.24c2.147-3.92 3.22-8.447 3.22-13.58s-1.073-9.66-3.22-13.58c-2.053-4.013-4.947-7.14-8.68-9.38s-8.027-3.36-12.88-3.36-9.147 1.12-12.88 3.36-6.673 5.367-8.82 9.38c-2.147 3.92-3.22 8.447-3.22 13.58s1.073 9.66 3.22 13.58 5.087 7 8.82 9.24 8.027 3.36 12.88 3.36zm83.273 12.6c-7.56 0-14.234-1.633-20.02-4.9-5.787-3.36-10.36-7.933-13.72-13.72-3.267-5.88-4.9-12.6-4.9-20.16 0-7.653 1.633-14.373 4.9-20.16 3.36-5.88 7.933-10.453 13.72-13.72 5.786-3.36 12.46-5.04 20.02-5.04 7.466 0 14.093 1.68 19.88 5.04 5.786 3.267 10.313 7.84 13.58 13.72 3.36 5.787 5.04 12.507 5.04 20.16 0 7.56-1.634 14.28-4.9 20.16-3.267 5.787-7.794 10.36-13.58 13.72-5.787 3.267-12.46 4.9-20.02 4.9zm0-12.6c4.853 0 9.146-1.12 12.88-3.36 3.733-2.24 6.626-5.32 8.68-9.24 2.146-3.92 3.22-8.447 3.22-13.58s-1.074-9.66-3.22-13.58c-2.054-4.013-4.947-7.14-8.68-9.38-3.734-2.24-8.027-3.36-12.88-3.36-4.854 0-9.147 1.12-12.88 3.36-3.734 2.24-6.674 5.367-8.82 9.38-2.147 3.92-3.22 8.447-3.22 13.58s1.073 9.66 3.22 13.58c2.146 3.92 5.086 7 8.82 9.24 3.733 2.24 8.026 3.36 12.88 3.36zm55.412 12.04c-2.053 0-3.733-.607-5.04-1.82-1.213-1.307-1.82-2.987-1.82-5.04v-95.62c0-2.0533.607-3.6867 1.82-4.9 1.307-1.3067 2.987-1.96 5.04-1.96 2.054 0 3.687.6533 4.9 1.96 1.307 1.2133 1.96 2.8467 1.96 4.9v56.98l34.02-30.38c1.4-1.307 2.94-1.913 4.62-1.82 1.774.093 3.267.84 4.48 2.24 1.307 1.4 1.914 2.94 1.82 4.62-.093 1.68-.84 3.173-2.24 4.48l-25.76 22.96 27.16 33.32c1.214 1.493 1.727 3.127 1.54 4.9-.093 1.68-.933 3.173-2.52 4.48-1.493 1.213-3.173 1.727-5.04 1.54-1.773-.093-3.266-.887-4.48-2.38l-26.6-32.9-7 6.16v21.42c0 2.053-.653 3.733-1.96 5.04-1.213 1.213-2.846 1.82-4.9 1.82z" fill="#d7d7d7"/><circle cx="954.429" cy="110.639" fill="#00d076" r="110.639"/><circle cx="1054.92" cy="168.496" fill="#30a3e6" r="73.0827"/><circle cx="982.849" cy="206.053" fill="#8c44f7" r="51.7669"/></svg>