<svg width="1128" height="258" viewBox="0 0 1128 258" fill="none" xmlns="http://www.w3.org/2000/svg">
<path d="M75.4712 196.827C64.7192 196.827 55.0699 194.346 46.5234 189.383C37.9768 184.283 31.2223 177.391 26.2598 168.706C21.2974 160.022 18.7472 150.235 18.6093 139.345V45.0576C18.6093 41.8871 19.5743 39.3369 21.5041 37.4071C23.5718 35.4772 26.122 34.5123 29.1546 34.5123C32.3251 34.5123 34.8753 35.4772 36.8051 37.4071C38.735 39.3369 39.6999 41.8871 39.6999 45.0576V100.886C44.5246 95.096 50.3141 90.5471 57.0686 87.2387C63.961 83.7926 71.4737 82.0695 79.6066 82.0695C89.6695 82.0695 98.6984 84.6197 106.694 89.72C114.689 94.6825 120.961 101.506 125.51 110.19C130.196 118.737 132.54 128.455 132.54 139.345C132.54 150.235 129.99 160.022 124.889 168.706C119.927 177.391 113.172 184.283 104.626 189.383C96.0793 194.346 86.3611 196.827 75.4712 196.827ZM75.4712 178.218C82.5014 178.218 88.7734 176.564 94.2873 173.255C99.8012 169.809 104.143 165.122 107.314 159.195C110.622 153.267 112.276 146.651 112.276 139.345C112.276 131.901 110.622 125.285 107.314 119.495C104.143 113.705 99.8012 109.156 94.2873 105.848C88.7734 102.402 82.5014 100.679 75.4712 100.679C68.5789 100.679 62.3068 102.402 56.6551 105.848C51.1412 109.156 46.799 113.705 43.6286 119.495C40.4581 125.285 38.8728 131.901 38.8728 139.345C38.8728 146.651 40.4581 153.267 43.6286 159.195C46.799 165.122 51.1412 169.809 56.6551 173.255C62.3068 176.564 68.5789 178.218 75.4712 178.218ZM198.732 196.827C187.567 196.827 177.711 194.415 169.164 189.59C160.618 184.628 153.863 177.873 148.901 169.327C144.076 160.642 141.664 150.717 141.664 139.552C141.664 128.248 144.076 118.323 148.901 109.777C153.863 101.092 160.618 94.3379 169.164 89.5132C177.711 84.5507 187.567 82.0695 198.732 82.0695C209.76 82.0695 219.547 84.5507 228.094 89.5132C236.64 94.3379 243.326 101.092 248.15 109.777C253.113 118.323 255.594 128.248 255.594 139.552C255.594 150.717 253.182 160.642 248.357 169.327C243.533 177.873 236.847 184.628 228.3 189.59C219.754 194.415 209.898 196.827 198.732 196.827ZM198.732 178.218C205.9 178.218 212.241 176.564 217.755 173.255C223.269 169.947 227.542 165.398 230.575 159.608C233.745 153.819 235.331 147.133 235.331 139.552C235.331 131.97 233.745 125.285 230.575 119.495C227.542 113.568 223.269 108.95 217.755 105.641C212.241 102.333 205.9 100.679 198.732 100.679C191.564 100.679 185.223 102.333 179.709 105.641C174.195 108.95 169.853 113.568 166.683 119.495C163.512 125.285 161.927 131.97 161.927 139.552C161.927 147.133 163.512 153.819 166.683 159.608C169.853 165.398 174.195 169.947 179.709 173.255C185.223 176.564 191.564 178.218 198.732 178.218ZM311.589 196C304.696 196 298.493 194.277 292.979 190.831C287.465 187.247 283.123 182.422 279.953 176.357C276.782 170.292 275.197 163.468 275.197 155.887V104.814H265.685C262.791 104.814 260.447 103.987 258.655 102.333C256.863 100.679 255.967 98.6111 255.967 96.1299C255.967 93.3729 256.863 91.1674 258.655 89.5132C260.447 87.8591 262.791 87.032 265.685 87.032H275.197V57.257C275.197 54.2244 276.162 51.7431 278.092 49.8133C280.022 47.8834 282.503 46.9185 285.535 46.9185C288.568 46.9185 291.049 47.8834 292.979 49.8133C294.909 51.7431 295.874 54.2244 295.874 57.257V87.032H313.449C316.344 87.032 318.688 87.8591 320.48 89.5132C322.272 91.1674 323.168 93.3729 323.168 96.1299C323.168 98.6111 322.272 100.679 320.48 102.333C318.688 103.987 316.344 104.814 313.449 104.814H295.874V155.887C295.874 161.4 297.39 166.018 300.423 169.74C303.456 173.462 307.177 175.323 311.589 175.323H318.619C321.1 175.323 323.168 176.288 324.822 178.218C326.614 180.148 327.51 182.629 327.51 185.661C327.51 188.694 326.338 191.175 323.995 193.105C321.789 195.035 318.894 196 315.31 196H311.589ZM384.034 196.827C373.971 196.827 364.942 194.346 356.947 189.383C348.952 184.283 342.611 177.46 337.924 168.913C333.375 160.229 331.101 150.442 331.101 139.552C331.101 128.662 333.582 118.875 338.545 110.19C343.645 101.506 350.468 94.6825 359.015 89.72C367.699 84.6197 377.417 82.0695 388.17 82.0695C398.922 82.0695 408.571 84.6197 417.117 89.72C425.664 94.6825 432.418 101.506 437.381 110.19C442.481 118.875 445.031 128.662 445.031 139.552V185.661C445.031 188.694 443.998 191.244 441.93 193.312C440 195.242 437.519 196.207 434.486 196.207C431.453 196.207 428.903 195.242 426.836 193.312C424.906 191.244 423.941 188.694 423.941 185.661V178.011C419.116 183.801 413.258 188.418 406.365 191.865C399.611 195.173 392.167 196.827 384.034 196.827ZM388.17 178.218C395.2 178.218 401.472 176.564 406.986 173.255C412.5 169.809 416.842 165.191 420.012 159.402C423.183 153.474 424.768 146.858 424.768 139.552C424.768 132.108 423.183 125.491 420.012 119.702C416.842 113.774 412.5 109.156 406.986 105.848C401.472 102.402 395.2 100.679 388.17 100.679C381.277 100.679 375.005 102.402 369.353 105.848C363.84 109.156 359.428 113.774 356.12 119.702C352.95 125.491 351.364 132.108 351.364 139.552C351.364 146.858 352.95 153.474 356.12 159.402C359.428 165.191 363.84 169.809 369.353 173.255C375.005 176.564 381.277 178.218 388.17 178.218ZM455.311 197.888C453.108 197.888 451.181 197.101 449.529 195.528C447.956 193.876 447.169 191.949 447.169 189.746C447.169 187.465 447.956 185.537 449.529 183.964C451.181 182.312 453.108 181.486 455.311 181.486C457.592 181.486 459.52 182.312 461.093 183.964C462.666 185.537 463.453 187.465 463.453 189.746C463.453 191.949 462.666 193.876 461.093 195.528C459.52 197.101 457.592 197.888 455.311 197.888Z" fill="#454545"/>
<path d="M536.177 196.56C528.897 196.56 522.363 194.88 516.577 191.52C510.79 188.067 506.217 183.4 502.857 177.52C499.497 171.64 497.77 165.013 497.677 157.64V93.8C497.677 91.6533 498.33 89.9267 499.637 88.62C501.037 87.3133 502.763 86.66 504.817 86.66C506.963 86.66 508.69 87.3133 509.997 88.62C511.303 89.9267 511.957 91.6533 511.957 93.8V131.6C515.223 127.68 519.143 124.6 523.717 122.36C528.383 120.027 533.47 118.86 538.977 118.86C545.79 118.86 551.903 120.587 557.317 124.04C562.73 127.4 566.977 132.02 570.057 137.9C573.23 143.687 574.817 150.267 574.817 157.64C574.817 165.013 573.09 171.64 569.637 177.52C566.277 183.4 561.703 188.067 555.917 191.52C550.13 194.88 543.55 196.56 536.177 196.56ZM536.177 183.96C540.937 183.96 545.183 182.84 548.917 180.6C552.65 178.267 555.59 175.093 557.737 171.08C559.977 167.067 561.097 162.587 561.097 157.64C561.097 152.6 559.977 148.12 557.737 144.2C555.59 140.28 552.65 137.2 548.917 134.96C545.183 132.627 540.937 131.46 536.177 131.46C531.51 131.46 527.263 132.627 523.437 134.96C519.703 137.2 516.763 140.28 514.617 144.2C512.47 148.12 511.397 152.6 511.397 157.64C511.397 162.587 512.47 167.067 514.617 171.08C516.763 175.093 519.703 178.267 523.437 180.6C527.263 182.84 531.51 183.96 536.177 183.96ZM619.634 196.56C612.074 196.56 605.401 194.927 599.614 191.66C593.827 188.3 589.254 183.727 585.894 177.94C582.627 172.06 580.994 165.34 580.994 157.78C580.994 150.127 582.627 143.407 585.894 137.62C589.254 131.74 593.827 127.167 599.614 123.9C605.401 120.54 612.074 118.86 619.634 118.86C627.101 118.86 633.727 120.54 639.514 123.9C645.301 127.167 649.827 131.74 653.094 137.62C656.454 143.407 658.134 150.127 658.134 157.78C658.134 165.34 656.501 172.06 653.234 177.94C649.967 183.727 645.441 188.3 639.654 191.66C633.867 194.927 627.194 196.56 619.634 196.56ZM619.634 183.96C624.487 183.96 628.781 182.84 632.514 180.6C636.247 178.36 639.141 175.28 641.194 171.36C643.341 167.44 644.414 162.913 644.414 157.78C644.414 152.647 643.341 148.12 641.194 144.2C639.141 140.187 636.247 137.06 632.514 134.82C628.781 132.58 624.487 131.46 619.634 131.46C614.781 131.46 610.487 132.58 606.754 134.82C603.021 137.06 600.081 140.187 597.934 144.2C595.787 148.12 594.714 152.647 594.714 157.78C594.714 162.913 595.787 167.44 597.934 171.36C600.081 175.28 603.021 178.36 606.754 180.6C610.487 182.84 614.781 183.96 619.634 183.96ZM702.907 196.56C695.347 196.56 688.673 194.927 682.887 191.66C677.1 188.3 672.527 183.727 669.167 177.94C665.9 172.06 664.267 165.34 664.267 157.78C664.267 150.127 665.9 143.407 669.167 137.62C672.527 131.74 677.1 127.167 682.887 123.9C688.673 120.54 695.347 118.86 702.907 118.86C710.373 118.86 717 120.54 722.787 123.9C728.573 127.167 733.1 131.74 736.367 137.62C739.727 143.407 741.407 150.127 741.407 157.78C741.407 165.34 739.773 172.06 736.507 177.94C733.24 183.727 728.713 188.3 722.927 191.66C717.14 194.927 710.467 196.56 702.907 196.56ZM702.907 183.96C707.76 183.96 712.053 182.84 715.787 180.6C719.52 178.36 722.413 175.28 724.467 171.36C726.613 167.44 727.687 162.913 727.687 157.78C727.687 152.647 726.613 148.12 724.467 144.2C722.413 140.187 719.52 137.06 715.787 134.82C712.053 132.58 707.76 131.46 702.907 131.46C698.053 131.46 693.76 132.58 690.027 134.82C686.293 137.06 683.353 140.187 681.207 144.2C679.06 148.12 677.987 152.647 677.987 157.78C677.987 162.913 679.06 167.44 681.207 171.36C683.353 175.28 686.293 178.36 690.027 180.6C693.76 182.84 698.053 183.96 702.907 183.96ZM758.319 196C756.266 196 754.586 195.393 753.279 194.18C752.066 192.873 751.459 191.193 751.459 189.14V93.52C751.459 91.4667 752.066 89.8333 753.279 88.62C754.586 87.3133 756.266 86.66 758.319 86.66C760.373 86.66 762.006 87.3133 763.219 88.62C764.526 89.8333 765.179 91.4667 765.179 93.52V150.5L799.199 120.12C800.599 118.813 802.139 118.207 803.819 118.3C805.593 118.393 807.086 119.14 808.299 120.54C809.606 121.94 810.213 123.48 810.119 125.16C810.026 126.84 809.279 128.333 807.879 129.64L782.119 152.6L809.279 185.92C810.493 187.413 811.006 189.047 810.819 190.82C810.726 192.5 809.886 193.993 808.299 195.3C806.806 196.513 805.126 197.027 803.259 196.84C801.486 196.747 799.993 195.953 798.779 194.46L772.179 161.56L765.179 167.72V189.14C765.179 191.193 764.526 192.873 763.219 194.18C762.006 195.393 760.373 196 758.319 196Z" fill="#989898"/>
<circle cx="954.429" cy="110.639" r="110.639" fill="#00D076"/>
<circle cx="1054.92" cy="168.496" r="73.0827" fill="#30A3E6"/>
<circle cx="982.849" cy="206.053" r="51.7669" fill="#8C44F7"/>
</svg>
