<svg width="253" height="82" viewBox="0 0 253 82" fill="none" xmlns="http://www.w3.org/2000/svg">
<path d="M19.0037 62.1763C15.584 62.1763 12.515 61.3872 9.79681 59.8088C7.07858 58.1867 4.93029 55.9945 3.35196 53.2325C1.77363 50.4704 0.962544 47.3576 0.918701 43.894V13.9057C0.918701 12.8973 1.2256 12.0862 1.83939 11.4725C2.49703 10.8587 3.30812 10.5518 4.27265 10.5518C5.28103 10.5518 6.09212 10.8587 6.70591 11.4725C7.31971 12.0862 7.62661 12.8973 7.62661 13.9057V31.6619C9.1611 29.8205 11.0025 28.3737 13.1508 27.3215C15.3429 26.2255 17.7323 25.6774 20.319 25.6774C23.5195 25.6774 26.3912 26.4885 28.9341 28.1107C31.4769 29.689 33.4718 31.8592 34.9186 34.6213C36.4092 37.3395 37.1545 40.4304 37.1545 43.894C37.1545 47.3576 36.3435 50.4704 34.7213 53.2325C33.143 55.9945 30.9947 58.1867 28.2764 59.8088C25.5582 61.3872 22.4673 62.1763 19.0037 62.1763ZM19.0037 56.2576C21.2397 56.2576 23.2345 55.7315 24.9882 54.6793C26.7419 53.5832 28.123 52.0925 29.1314 50.2073C30.1836 48.3221 30.7097 46.2176 30.7097 43.894C30.7097 41.5265 30.1836 39.4221 29.1314 37.5807C28.123 35.7393 26.7419 34.2925 24.9882 33.2403C23.2345 32.1442 21.2397 31.5962 19.0037 31.5962C16.8116 31.5962 14.8168 32.1442 13.0192 33.2403C11.2655 34.2925 9.8845 35.7393 8.87612 37.5807C7.86774 39.4221 7.36355 41.5265 7.36355 43.894C7.36355 46.2176 7.86774 48.3221 8.87612 50.2073C9.8845 52.0925 11.2655 53.5832 13.0192 54.6793C14.8168 55.7315 16.8116 56.2576 19.0037 56.2576Z" fill="#454545"/>
<path d="M58.2072 62.1763C54.6559 62.1763 51.5212 61.4091 48.803 59.8746C46.0847 58.2963 43.9364 56.148 42.3581 53.4297C40.8236 50.6677 40.0564 47.511 40.0564 43.9598C40.0564 40.3647 40.8236 37.208 42.3581 34.4898C43.9364 31.7277 46.0847 29.5794 48.803 28.0449C51.5212 26.4666 54.6559 25.6774 58.2072 25.6774C61.7146 25.6774 64.8274 26.4666 67.5456 28.0449C70.2639 29.5794 72.3902 31.7277 73.9247 34.4898C75.5031 37.208 76.2922 40.3647 76.2922 43.9598C76.2922 47.511 75.525 50.6677 73.9905 53.4297C72.456 56.148 70.3296 58.2963 67.6114 59.8746C64.8932 61.4091 61.7584 62.1763 58.2072 62.1763ZM58.2072 56.2576C60.487 56.2576 62.5037 55.7315 64.2574 54.6793C66.0111 53.627 67.3703 52.1802 68.3348 50.3388C69.3432 48.4975 69.8474 46.3711 69.8474 43.9598C69.8474 41.5484 69.3432 39.4221 68.3348 37.5807C67.3703 35.6954 66.0111 34.2267 64.2574 33.1745C62.5037 32.1223 60.487 31.5962 58.2072 31.5962C55.9274 31.5962 53.9106 32.1223 52.1569 33.1745C50.4032 34.2267 49.0222 35.6954 48.0138 37.5807C47.0054 39.4221 46.5012 41.5484 46.5012 43.9598C46.5012 46.3711 47.0054 48.4975 48.0138 50.3388C49.0222 52.1802 50.4032 53.627 52.1569 54.6793C53.9106 55.7315 55.9274 56.2576 58.2072 56.2576Z" fill="#454545"/>
<path d="M94.1013 61.9133C91.9092 61.9133 89.9363 61.3652 88.1826 60.2692C86.4289 59.1293 85.0479 57.5948 84.0395 55.6657C83.0311 53.7366 82.5269 51.5664 82.5269 49.1551V32.9114H79.5018C78.5811 32.9114 77.8358 32.6484 77.2658 32.1223C76.6959 31.5962 76.4109 30.9385 76.4109 30.1494C76.4109 29.2725 76.6959 28.571 77.2658 28.0449C77.8358 27.5188 78.5811 27.2558 79.5018 27.2558H82.5269V17.7858C82.5269 16.8212 82.8338 16.0321 83.4476 15.4183C84.0614 14.8045 84.8506 14.4976 85.8151 14.4976C86.7797 14.4976 87.5688 14.8045 88.1826 15.4183C88.7964 16.0321 89.1033 16.8212 89.1033 17.7858V27.2558H94.6932C95.6139 27.2558 96.3592 27.5188 96.9292 28.0449C97.4991 28.571 97.7841 29.2725 97.7841 30.1494C97.7841 30.9385 97.4991 31.5962 96.9292 32.1223C96.3592 32.6484 95.6139 32.9114 94.6932 32.9114H89.1033V49.1551C89.1033 50.9088 89.5856 52.3775 90.5501 53.5613C91.5146 54.745 92.6984 55.3369 94.1013 55.3369H96.3373C97.1265 55.3369 97.7841 55.6438 98.3102 56.2576C98.8802 56.8714 99.1652 57.6605 99.1652 58.6251C99.1652 59.5896 98.7925 60.3788 98.0472 60.9926C97.3457 61.6064 96.425 61.9133 95.2851 61.9133H94.1013Z" fill="#454545"/>
<path d="M117.143 62.1763C113.942 62.1763 111.071 61.3872 108.528 59.8088C105.985 58.1867 103.968 56.0165 102.478 53.2982C101.031 50.5361 100.307 47.4233 100.307 43.9598C100.307 40.4962 101.096 37.3834 102.675 34.6213C104.297 31.8592 106.467 29.689 109.185 28.1107C111.947 26.4885 115.038 25.6774 118.458 25.6774C121.878 25.6774 124.947 26.4885 127.665 28.1107C130.383 29.689 132.532 31.8592 134.11 34.6213C135.732 37.3834 136.543 40.4962 136.543 43.9598V58.6251C136.543 59.5896 136.214 60.4007 135.557 61.0583C134.943 61.6721 134.154 61.979 133.189 61.979C132.225 61.979 131.414 61.6721 130.756 61.0583C130.142 60.4007 129.835 59.5896 129.835 58.6251V56.1918C128.301 58.0332 126.437 59.5019 124.245 60.598C122.097 61.6502 119.73 62.1763 117.143 62.1763ZM118.458 56.2576C120.694 56.2576 122.689 55.7315 124.443 54.6793C126.196 53.5832 127.577 52.1145 128.586 50.2731C129.594 48.3879 130.098 46.2834 130.098 43.9598C130.098 41.5923 129.594 39.4878 128.586 37.6464C127.577 35.7612 126.196 34.2925 124.443 33.2403C122.689 32.1442 120.694 31.5962 118.458 31.5962C116.266 31.5962 114.271 32.1442 112.474 33.2403C110.72 34.2925 109.317 35.7612 108.265 37.6464C107.256 39.4878 106.752 41.5923 106.752 43.9598C106.752 46.2834 107.256 48.3879 108.265 50.2731C109.317 52.1145 110.72 53.5832 112.474 54.6793C114.271 55.7315 116.266 56.2576 118.458 56.2576Z" fill="#454545"/>
<path d="M143.172 62.9655C141.945 62.9655 140.871 62.5271 139.95 61.6502C139.073 60.7295 138.635 59.6554 138.635 58.4278C138.635 57.1564 139.073 56.0822 139.95 55.2054C140.871 54.2847 141.945 53.8243 143.172 53.8243C144.444 53.8243 145.518 54.2847 146.395 55.2054C147.272 56.0822 147.71 57.1564 147.71 58.4278C147.71 59.6554 147.272 60.7295 146.395 61.6502C145.518 62.5271 144.444 62.9655 143.172 62.9655Z" fill="#454545"/>
<circle cx="197.417" cy="35.189" r="35.189" fill="#00D076"/>
<circle cx="229.378" cy="53.5905" r="23.2441" fill="#30A3E6"/>
<circle cx="206.457" cy="65.5354" r="16.4646" fill="#8C44F7"/>
</svg>
